<?xml version="1.0" encoding="utf-8"?>
<!-- Generator: Adobe Illustrator 25.0.0, SVG Export Plug-In . SVG Version: 6.00 Build 0)  -->
<svg version="1.1" id="Ebene_1" xmlns="http://www.w3.org/2000/svg" xmlns:xlink="http://www.w3.org/1999/xlink" x="0px" y="0px"
	 viewBox="0 0 607.6 193.5" style="enable-background:new 0 0 607.6 193.5;" xml:space="preserve">
<style type="text/css">
	.st0{fill:#4697A8;}
	.st1{fill:#555555;}
	.st2{fill:#F04E37;}
</style>
<g>
	<path class="st0" d="M283.5,46.7c6.2,4.7,9.3,13.3,9.3,25.9c0,12.3-3.1,21-9.2,26.1c-6.1,5-13.9,7.6-23.2,7.6h-18.1V39.7h16.4
		C269.1,39.7,277.3,42,283.5,46.7z M255,49.2v47.5h6.3c5.7,0,10.1-1.8,13.3-5.3c3.2-3.5,4.8-9.8,4.8-18.8c0-6.3-0.8-11.2-2.5-14.6
		c-1.6-3.4-3.8-5.8-6.5-7c-2.7-1.2-5.9-1.8-9.6-1.8H255z"/>
	<path class="st0" d="M359,84.5c0,4.5-0.9,8.5-2.8,12c-1.9,3.5-4.7,6.3-8.5,8.2c-3.8,2-8.3,3-13.5,3c-8,0-14.1-2.1-18.3-6.3
		c-4.2-4.2-6.4-9.8-6.4-16.9V39.7h12.7v44.2c0,4.7,1,8.2,2.9,10.5c2,2.3,5,3.5,9,3.5c4.1,0,7.1-1.2,9.1-3.5c2-2.3,2.9-5.8,2.9-10.5
		V39.7H359V84.5z"/>
	<path class="st0" d="M418.8,45c4.7,3.5,7.1,8.8,7.1,15.9c0,7.4-2.4,12.9-7.1,16.6c-4.8,3.7-11.1,5.5-19,5.5h-7.8v23.2h-12.7V39.7
		h19.7C407.4,39.7,414.1,41.5,418.8,45z M409.1,70.7c2.3-1.9,3.5-5.2,3.5-9.8c0-7.9-4.6-11.9-13.8-11.9h-6.8v24.5h6.8
		C403.3,73.5,406.8,72.6,409.1,70.7z"/>
	<path class="st0" d="M454.5,39.7v56.2h26.7l-1.4,10.4h-38V39.7H454.5z"/>
	<path class="st0" d="M534.8,39.7l-1.4,9.4h-24.6v18.6h21.4v9.4h-21.4v19.6h26.3v9.5h-39V39.7H534.8z"/>
	<path class="st0" d="M579.6,70.3l19.8,36h-14.2L571.8,79l-13.2,27.3H545l19.3-35.5l-17.7-31.1h14.2l11.3,23l11.8-23h13.6
		L579.6,70.3z"/>
</g>
<g>
	<g>
		<path class="st1" d="M258.8,132.3c2.5,2,3.8,5.8,3.8,11.3s-1.3,9.3-3.8,11.5c-2.5,2.2-5.7,3.3-9.3,3.3h-6.3v-29.2h5.8
			C253,129.2,256.3,130.3,258.8,132.3z M245.7,131.4v25h3.9c6.9,0,10.3-4.2,10.3-12.7c0-3.4-0.5-5.9-1.5-7.7c-1-1.8-2.3-3-3.8-3.6
			c-1.5-0.6-3.3-0.9-5.3-0.9H245.7z"/>
		<path class="st1" d="M275.2,129.2v29.2h-2.6v-29.2H275.2z"/>
		<path class="st1" d="M301.9,129.2l-0.3,2.1h-12v10.9H300v2.1h-10.4v12h12.6v2.1h-15.2v-29.2H301.9z"/>
		<path class="st1" d="M354.2,129.2l-6.4,29.2h-3.2l-6.4-26.4l-6.4,26.4h-3.1l-6.4-29.2h2.6l5.6,26.9l6.4-26.9h2.9l6.5,26.9
			l5.6-26.9H354.2z"/>
		<path class="st1" d="M377.6,129.2l-0.3,2.1h-12v10.9h10.4v2.1h-10.4v12h12.6v2.1h-15.2v-29.2H377.6z"/>
		<path class="st1" d="M403.6,145.1c1.3,1.2,1.9,2.9,1.9,5.3c0,2.7-0.9,4.8-2.8,6.1c-1.9,1.3-4.4,2-7.7,2h-8v-29.2h6.5
			c3.4,0,6,0.6,7.8,1.8c1.8,1.2,2.8,3,2.8,5.5c0,1.8-0.5,3.2-1.5,4.4c-1,1.1-2.3,1.8-3.9,2.1C400.8,143.2,402.4,143.9,403.6,145.1z
			 M389.6,131.4v10.7h5.9c1.8,0,3.3-0.5,4.4-1.4c1.1-1,1.7-2.3,1.7-3.9c0-1.9-0.6-3.3-1.9-4.1c-1.3-0.8-3.2-1.2-5.8-1.2H389.6z
			 M402.9,150.4c0-2.1-0.6-3.7-1.9-4.7c-1.3-1-3-1.5-5.1-1.5h-6.2v12.2h5.4C400.2,156.4,402.9,154.4,402.9,150.4z"/>
		<path class="st1" d="M430.7,158.5l-2.6-8h-12.3l-2.6,8h-2.6l9.8-29.2h3.2l9.7,29.2H430.7z M416.6,148.3h10.9l-5.4-17L416.6,148.3z
			"/>
		<path class="st1" d="M455.5,129.5c1.2,0.5,2.5,1.2,3.7,2.2l-1.5,1.6c-1.1-0.8-2.1-1.4-3.1-1.8c-1-0.4-2.1-0.6-3.4-0.6
			c-1.7,0-3.2,0.4-4.7,1.3c-1.4,0.9-2.6,2.3-3.5,4.2s-1.3,4.3-1.3,7.3c0,4.4,0.8,7.6,2.5,9.8s4,3.2,6.9,3.2c2.3,0,4.3-0.5,6.1-1.5
			v-10.4h-5.7l-0.3-2.1h8.5v13.8c-2.8,1.6-5.7,2.4-8.7,2.4c-3.7,0-6.7-1.3-8.8-3.9c-2.2-2.6-3.2-6.4-3.2-11.3c0-3.2,0.6-6,1.7-8.2
			s2.6-4,4.5-5.1c1.9-1.1,3.9-1.7,6-1.7C452.8,128.8,454.3,129,455.5,129.5z"/>
		<path class="st1" d="M484.6,129.2l-0.3,2.1h-12v10.9h10.4v2.1h-10.4v12h12.6v2.1h-15.2v-29.2H484.6z"/>
		<path class="st1" d="M513.3,158.5h-3.4l-13.8-26.4c0.2,3.6,0.3,6.9,0.3,10.1v16.4H494v-29.2h3.3l13.9,26.4
			c-0.2-3.3-0.3-6.2-0.3-8.7v-17.8h2.4V158.5z"/>
		<path class="st1" d="M541.1,129.2l-0.3,2.3h-8.6v27h-2.5v-27h-8.7v-2.3H541.1z"/>
		<path class="st1" d="M567.5,149.4c0,2.9-0.8,5.2-2.5,7c-1.7,1.8-4,2.6-7.1,2.6c-3.1,0-5.5-0.9-7.2-2.6c-1.6-1.7-2.5-4.1-2.5-7
			v-20.1h2.6v19.9c0,2.4,0.6,4.3,1.7,5.6c1.2,1.3,2.9,2,5.3,2c2.4,0,4.2-0.7,5.3-2c1.1-1.3,1.7-3.2,1.7-5.6v-19.9h2.6V149.4z"/>
		<path class="st1" d="M587.4,145.4h-5.8v13.1H579v-29.2h7.1c6.9,0,10.4,2.6,10.4,7.9c0,2.1-0.6,3.8-1.7,5c-1.1,1.3-2.7,2.1-4.9,2.7
			l8,13.6h-3L587.4,145.4z M586.4,143.3c4.9,0,7.3-2,7.3-6.1c0-2-0.6-3.5-1.8-4.4c-1.2-1-3.2-1.4-5.9-1.4h-4.4v12H586.4z"/>
	</g>
</g>
<path class="st2" d="M69.5,101.3l32.2,22.4l76.6-53.3l-76.6-53.3L25.1,70.4l27.4,19c2.3,1.6,2.8,4.7,1.2,7c-1.6,2.3-4.7,2.8-7,1.2
	L13.5,74.5c-1.3-0.9-2.1-2.5-2.1-4.1s0.8-3.2,2.1-4.1L98.9,6.9c1.7-1.2,4-1.2,5.7,0L190,66.3c1.3,0.9,2.1,2.5,2.1,4.1
	s-0.8,3.2-2.1,4.1l-85.4,59.4c-0.9,0.6-1.9,0.9-2.9,0.9s-2-0.3-2.9-0.9l-38.2-26.6"/>
<path class="st2" d="M168.3,102.3l21.6,15.1c1.3,0.9,2.1,2.5,2.1,4.1s-0.8,3.2-2.1,4.1l-85.4,59.4c-0.9,0.6-1.9,0.9-2.9,0.9
	s-2-0.3-2.9-0.9l-85.4-59.4c-1.3-0.9-2.1-2.5-2.1-4.1s0.8-3.2,2.1-4.1l85.4-59.4c1.7-1.2,4-1.2,5.7,0l48.7,33.9
	c2.3,1.6,2.8,4.7,1.2,7c-1.6,2.3-4.7,2.8-7,1.2l-45.9-31.9l-76.6,53.3l76.6,53.3l76.6-53.3l-18.7-13"/>
</svg>
