<?xml version="1.0" encoding="utf-8"?>
<!-- Generator: Adobe Illustrator 23.0.1, SVG Export Plug-In . SVG Version: 6.00 Build 0)  -->
<svg version="1.1" id="Capa_1" xmlns="http://www.w3.org/2000/svg" xmlns:xlink="http://www.w3.org/1999/xlink" x="0px" y="0px"
	 viewBox="0 0 480 480" style="enable-background:new 0 0 480 480;" xml:space="preserve">
<style type="text/css">
	.st0{fill:url(#SVGID_1_);}
	.st1{fill:url(#SVGID_2_);}
	.st2{fill:url(#SVGID_3_);}
	.st3{fill:url(#SVGID_4_);}
	.st4{fill:url(#SVGID_5_);}
	.st5{fill:url(#SVGID_6_);}
</style>
<linearGradient id="SVGID_1_" gradientUnits="userSpaceOnUse" x1="102.8512" y1="259.1152" x2="262.1277" y2="-19.6186">
	<stop  offset="0" style="stop-color:#4697A8"/>
	<stop  offset="1" style="stop-color:#F04E37"/>
</linearGradient>
<path class="st0" d="M188.6,202.6H38.9v74.8h149.7V202.6z M173.6,262.5H53.9v-44.9h119.7V262.5z"/>
<linearGradient id="SVGID_2_" gradientUnits="userSpaceOnUse" x1="157.6562" y1="290.4323" x2="316.9326" y2="11.6985">
	<stop  offset="0" style="stop-color:#4697A8"/>
	<stop  offset="1" style="stop-color:#F04E37"/>
</linearGradient>
<path class="st1" d="M38.9,442.1h149.7V292.4H38.9V442.1z M53.9,397.2h29.9v29.9H53.9V397.2z M128.7,352.3v29.9H98.8v-29.9H128.7z
	 M98.8,337.3v-29.9h29.9v29.9H98.8z M143.7,352.3h29.9v29.9h-29.9V352.3z M128.7,397.2v29.9H98.8v-29.9H128.7z M83.8,382.2H53.9
	v-29.9h29.9V382.2z M143.7,427.1v-29.9h29.9v29.9H143.7z M173.6,337.3h-29.9v-29.9h29.9V337.3z M83.8,307.4v29.9H53.9v-29.9H83.8z"
	/>
<linearGradient id="SVGID_3_" gradientUnits="userSpaceOnUse" x1="148.7593" y1="285.3483" x2="308.0357" y2="6.6146">
	<stop  offset="0" style="stop-color:#4697A8"/>
	<stop  offset="1" style="stop-color:#F04E37"/>
</linearGradient>
<path class="st2" d="M203.6,434.6c0,12.4-10.1,22.5-22.5,22.5H46.4C34,457,24,447,24,434.6V210.1c0-12.4,10.1-22.5,22.5-22.5h134.7
	c12.4,0,22.5,10.1,22.5,22.5v37.4h7.5c85,0,167.3-29.5,233-83.1l-8.2,28.6l14.4,4.1l18.1-63.5l-63.8,9.1l2.1,14.8l26.7-3.8
	c-60.9,49.3-136.5,77-214.9,78.7v-22.4c0-8.4-2.9-16.1-7.6-22.4c6.9-9.2,12.4-19.2,16.2-30h36.3v-15h-47.3l-1.6,5.3
	c-3.2,10.8-8.3,20.7-14.9,29.7c-4.6-2.6-9.7-4.3-15.2-4.8c3-3.6,5.8-7.4,8.2-11.5l-13-7.5c-4.2,7.2-9.6,13.5-16.1,18.7h-34.7v-16.3
	c8.7-3.1,15-11.3,15-21.1c0-12.4-10.1-22.5-22.5-22.5c-4.1,0-7.5-3.4-7.5-7.5c0-4.1,3.4-7.5,7.5-7.5s7.5,3.4,7.5,7.5h15
	c0-9.7-6.3-18-15-21.1V67.9h-15v16.3c-8.7,3.1-15,11.3-15,21.1c0,12.4,10.1,22.5,22.5,22.5c4.1,0,7.5,3.4,7.5,7.5
	c0,4.1-3.4,7.5-7.5,7.5s-7.5-3.4-7.5-7.5h-15c0,9.7,6.3,18,15,21.1v16.3H79.1c-16-12.9-25.2-31.8-25.2-52.4
	c0-37.1,30.2-67.4,67.4-67.4s67.4,30.2,67.4,67.4v7.5h149.7v-15h-135c-3.8-41.9-39.1-74.8-82-74.8c-45.4,0-82.3,36.9-82.3,82.3
	c0,19.5,6.7,37.8,18.8,52.4H46.4c-2.3,0-4.5,0.3-6.6,0.7c-10.3-15.8-15.8-34-15.8-53.1C24,66.6,67.6,23,121.3,23
	c42.7,0,81.1,28.6,93.3,69.5l1.6,5.3h137.1v-15H227.1C211.4,38.5,168.7,8,121.3,8C59.4,8,9,58.4,9,120.3c0,21,5.7,41.1,16.6,58.7
	C15.6,185.7,9,197.1,9,210.1v224.5C9,455.2,25.8,472,46.4,472h134.7c20.6,0,37.4-16.8,37.4-37.4V262.5h-15V434.6z"/>
<linearGradient id="SVGID_4_" gradientUnits="userSpaceOnUse" x1="331.7426" y1="389.9102" x2="491.019" y2="111.1765">
	<stop  offset="0" style="stop-color:#4697A8"/>
	<stop  offset="1" style="stop-color:#F04E37"/>
</linearGradient>
<path class="st3" d="M455.8,202.6l-27,18C373,257.8,308.1,277.4,241,277.4h-7.5v149.7H473V202.6H455.8z M338.3,278.7
	c10.1-2.9,20.1-6.2,29.9-10v143.4h-29.9V278.7z M323.3,412.1h-29.9V288.5c10.1-1.5,20.1-3.4,29.9-5.7V412.1z M383.2,262.6
	c10.2-4.5,20.2-9.5,29.9-14.9v164.5h-29.9V262.6z M248.5,292.3c10-0.2,20-0.9,29.9-1.9v121.8h-29.9V292.3z M458,412.1h-29.9V238.8
	c3-1.9,6-3.8,9-5.8l20.9-13.9V412.1z"/>
<linearGradient id="SVGID_5_" gradientUnits="userSpaceOnUse" x1="216.4909" y1="324.0522" x2="375.7674" y2="45.3184">
	<stop  offset="0" style="stop-color:#4697A8"/>
	<stop  offset="1" style="stop-color:#F04E37"/>
</linearGradient>
<path class="st4" d="M308.4,142.7h15v15h-15V142.7z"/>
<linearGradient id="SVGID_6_" gradientUnits="userSpaceOnUse" x1="193.9242" y1="311.1569" x2="353.2006" y2="32.4231">
	<stop  offset="0" style="stop-color:#4697A8"/>
	<stop  offset="1" style="stop-color:#F04E37"/>
</linearGradient>
<path class="st5" d="M278.4,142.7h15v15h-15V142.7z"/>
</svg>
