<?xml version="1.0" encoding="utf-8"?>
<!-- Generator: Adobe Illustrator 23.0.1, SVG Export Plug-In . SVG Version: 6.00 Build 0)  -->
<svg version="1.1" id="Capa_1" xmlns="http://www.w3.org/2000/svg" xmlns:xlink="http://www.w3.org/1999/xlink" x="0px" y="0px"
	 viewBox="0 0 480 480" style="enable-background:new 0 0 480 480;" xml:space="preserve">
<style type="text/css">
	.st0{fill:url(#SVGID_1_);}
	.st1{fill:url(#SVGID_2_);}
	.st2{fill:url(#SVGID_3_);}
	.st3{fill:url(#SVGID_4_);}
	.st4{fill:url(#SVGID_5_);}
	.st5{fill:url(#SVGID_6_);}
	.st6{fill:url(#SVGID_7_);}
	.st7{fill:url(#SVGID_8_);}
	.st8{fill:url(#SVGID_9_);}
	.st9{fill:url(#SVGID_10_);}
	.st10{fill:url(#SVGID_11_);}
	.st11{fill:url(#SVGID_12_);}
</style>
<g>
	<g>
		<g>
			<linearGradient id="SVGID_1_" gradientUnits="userSpaceOnUse" x1="208.5908" y1="260.8992" x2="342.416" y2="0.8958">
				<stop  offset="0" style="stop-color:#4697A8"/>
				<stop  offset="1" style="stop-color:#F04E37"/>
			</linearGradient>
			<path class="st0" d="M446.4,32.3H32.5c-12.7,0-23,10.3-23,23v291.3c0,12.7,10.3,23,23,23h176.3v30.7h-61.3c-12.7,0-23,10.3-23,23
				v15.3c0,4.2,3.4,7.7,7.7,7.7h214.6c4.2,0,7.7-3.4,7.7-7.7v-15.3c0-12.7-10.3-23-23-23h-53.7v-30.7h168.6c12.7,0,23-10.3,23-23
				V55.3C469.4,42.6,459.1,32.3,446.4,32.3z M331.4,415.6c4.2,0,7.7,3.4,7.7,7.7v7.7H139.8v-7.7c0-4.2,3.4-7.7,7.7-7.7H331.4z
				 M224.1,400.3v-30.7h38.3v30.7H224.1z M454.1,346.6c0,4.2-3.4,7.7-7.7,7.7H32.5c-4.2,0-7.7-3.4-7.7-7.7v-23h429.3V346.6z
				 M454.1,308.3H24.8v-214h429.3V308.3z M454.1,78.9H24.8V55.3c0-4.2,3.4-7.7,7.7-7.7h413.9c4.2,0,7.7,3.4,7.7,7.7V78.9z"/>
			<linearGradient id="SVGID_2_" gradientUnits="userSpaceOnUse" x1="99.1554" y1="204.5722" x2="232.9807" y2="-55.4312">
				<stop  offset="0" style="stop-color:#4697A8"/>
				<stop  offset="1" style="stop-color:#F04E37"/>
			</linearGradient>
			<path class="st1" d="M47.8,124.3h17l21.5,101.2c0.7,3.6,3.9,6.1,7.5,6.1h92c3.6,0,6.8-2.6,7.5-6.1l15.3-76.7c0.8-4.1-1.8-8.2-6-9
				c-0.5-0.1-1-0.2-1.5-0.2H84.5l-6.2-24.9c-0.9-3.4-3.9-5.8-7.4-5.8h-23c-4.2,0-7.7,3.4-7.7,7.7C40.1,120.9,43.6,124.3,47.8,124.3z
				 M191.8,155l-12.3,61.3h-79.4L87.8,155H191.8z"/>
			<linearGradient id="SVGID_3_" gradientUnits="userSpaceOnUse" x1="130.5242" y1="220.7179" x2="264.3495" y2="-39.2855">
				<stop  offset="0" style="stop-color:#4697A8"/>
				<stop  offset="1" style="stop-color:#F04E37"/>
			</linearGradient>
			<path class="st2" d="M109.1,239.3c-12.7,0-23,10.3-23,23c0,12.7,10.3,23,23,23s23-10.3,23-23
				C132.1,249.6,121.8,239.3,109.1,239.3z M109.1,269.9c-4.2,0-7.7-3.4-7.7-7.7c0-4.2,3.4-7.7,7.7-7.7c4.2,0,7.7,3.4,7.7,7.7
				C116.8,266.5,113.4,269.9,109.1,269.9z"/>
			<linearGradient id="SVGID_4_" gradientUnits="userSpaceOnUse" x1="185.0638" y1="248.7898" x2="318.8891" y2="-11.2136">
				<stop  offset="0" style="stop-color:#4697A8"/>
				<stop  offset="1" style="stop-color:#F04E37"/>
			</linearGradient>
			<path class="st3" d="M178.1,239.3c-12.7,0-23,10.3-23,23c0,12.7,10.3,23,23,23c12.7,0,23-10.3,23-23
				C201.1,249.6,190.8,239.3,178.1,239.3z M178.1,269.9c-4.2,0-7.7-3.4-7.7-7.7c0-4.2,3.4-7.7,7.7-7.7c4.2,0,7.7,3.4,7.7,7.7
				C185.8,266.5,182.4,269.9,178.1,269.9z"/>
			<linearGradient id="SVGID_5_" gradientUnits="userSpaceOnUse" x1="244.2376" y1="279.2469" x2="378.0629" y2="19.2435">
				<stop  offset="0" style="stop-color:#4697A8"/>
				<stop  offset="1" style="stop-color:#F04E37"/>
			</linearGradient>
			<path class="st4" d="M247.1,147.3h138c4.2,0,7.7-3.4,7.7-7.7c0-4.2-3.4-7.7-7.7-7.7h-138c-4.2,0-7.7,3.4-7.7,7.7
				C239.4,143.9,242.9,147.3,247.1,147.3z"/>
			<linearGradient id="SVGID_6_" gradientUnits="userSpaceOnUse" x1="329.0771" y1="322.9142" x2="462.9023" y2="62.9108">
				<stop  offset="0" style="stop-color:#4697A8"/>
				<stop  offset="1" style="stop-color:#F04E37"/>
			</linearGradient>
			<path class="st5" d="M415.7,147.3h15.3c4.2,0,7.7-3.4,7.7-7.7c0-4.2-3.4-7.7-7.7-7.7h-15.3c-4.2,0-7.7,3.4-7.7,7.7
				C408.1,143.9,411.5,147.3,415.7,147.3z"/>
			<linearGradient id="SVGID_7_" gradientUnits="userSpaceOnUse" x1="256.714" y1="285.6685" x2="390.5393" y2="25.6651">
				<stop  offset="0" style="stop-color:#4697A8"/>
				<stop  offset="1" style="stop-color:#F04E37"/>
			</linearGradient>
			<path class="st6" d="M247.1,178h138c4.2,0,7.7-3.4,7.7-7.7s-3.4-7.7-7.7-7.7h-138c-4.2,0-7.7,3.4-7.7,7.7S242.9,178,247.1,178z"
				/>
			<linearGradient id="SVGID_8_" gradientUnits="userSpaceOnUse" x1="341.5534" y1="329.3359" x2="475.3787" y2="69.3325">
				<stop  offset="0" style="stop-color:#4697A8"/>
				<stop  offset="1" style="stop-color:#F04E37"/>
			</linearGradient>
			<path class="st7" d="M415.7,178h15.3c4.2,0,7.7-3.4,7.7-7.7s-3.4-7.7-7.7-7.7h-15.3c-4.2,0-7.7,3.4-7.7,7.7S411.5,178,415.7,178z
				"/>
			<linearGradient id="SVGID_9_" gradientUnits="userSpaceOnUse" x1="269.1904" y1="292.0902" x2="403.0157" y2="32.0868">
				<stop  offset="0" style="stop-color:#4697A8"/>
				<stop  offset="1" style="stop-color:#F04E37"/>
			</linearGradient>
			<path class="st8" d="M247.1,208.6h138c4.2,0,7.7-3.4,7.7-7.7s-3.4-7.7-7.7-7.7h-138c-4.2,0-7.7,3.4-7.7,7.7
				S242.9,208.6,247.1,208.6z"/>
			<linearGradient id="SVGID_10_" gradientUnits="userSpaceOnUse" x1="354.0298" y1="335.7576" x2="487.8551" y2="75.7542">
				<stop  offset="0" style="stop-color:#4697A8"/>
				<stop  offset="1" style="stop-color:#F04E37"/>
			</linearGradient>
			<path class="st9" d="M415.7,208.6h15.3c4.2,0,7.7-3.4,7.7-7.7s-3.4-7.7-7.7-7.7h-15.3c-4.2,0-7.7,3.4-7.7,7.7
				S411.5,208.6,415.7,208.6z"/>
			<linearGradient id="SVGID_11_" gradientUnits="userSpaceOnUse" x1="281.6667" y1="298.5119" x2="415.4921" y2="38.5085">
				<stop  offset="0" style="stop-color:#4697A8"/>
				<stop  offset="1" style="stop-color:#F04E37"/>
			</linearGradient>
			<path class="st10" d="M247.1,239.3h138c4.2,0,7.7-3.4,7.7-7.7c0-4.2-3.4-7.7-7.7-7.7h-138c-4.2,0-7.7,3.4-7.7,7.7
				C239.4,235.8,242.9,239.3,247.1,239.3z"/>
			<linearGradient id="SVGID_12_" gradientUnits="userSpaceOnUse" x1="366.5062" y1="342.1793" x2="500.3315" y2="82.1758">
				<stop  offset="0" style="stop-color:#4697A8"/>
				<stop  offset="1" style="stop-color:#F04E37"/>
			</linearGradient>
			<path class="st11" d="M415.7,239.3h15.3c4.2,0,7.7-3.4,7.7-7.7c0-4.2-3.4-7.7-7.7-7.7h-15.3c-4.2,0-7.7,3.4-7.7,7.7
				C408.1,235.8,411.5,239.3,415.7,239.3z"/>
		</g>
	</g>
</g>
</svg>
