<?xml version="1.0" encoding="utf-8"?>
<!-- Generator: Adobe Illustrator 23.0.1, SVG Export Plug-In . SVG Version: 6.00 Build 0)  -->
<svg version="1.1" id="Capa_1" xmlns="http://www.w3.org/2000/svg" xmlns:xlink="http://www.w3.org/1999/xlink" x="0px" y="0px"
	 viewBox="0 0 480 480" style="enable-background:new 0 0 480 480;" xml:space="preserve">
<style type="text/css">
	.st0{fill:url(#SVGID_1_);}
	.st1{fill:url(#SVGID_2_);}
</style>
<g>
	<linearGradient id="SVGID_1_" gradientUnits="userSpaceOnUse" x1="230.0621" y1="315.8787" x2="397.6628" y2="11.2711">
		<stop  offset="0" style="stop-color:#4697A8"/>
		<stop  offset="1" style="stop-color:#F04E37"/>
	</linearGradient>
	<path class="st0" d="M468.4,331.5h-15.9L409.8,46.8c8.2-3.3,13.9-11.3,13.9-20.7c0-12.3-10-22.3-22.3-22.3h-59.6
		c-12.3,0-22.3,10-22.3,22.3c0,2.6,0.5,5.1,1.4,7.4H134.9h-1.7h-9.6L58.8,74.2v16.1l45,22.8l-64.5,129H29c-12.3,0-22.3,10-22.3,22.3
		v14.9c0,12.3,10,22.3,22.3,22.3h178.7c12.3,0,22.3-10,22.3-22.3v-14.9c0-12.3-10-22.3-22.3-22.3h-10.3l-54.6-109.2l165.1,83.7
		l-17.2,114.9h-15.9v104.3h16.5l7.4,29.8h145.7l7.4-29.8h16.5V331.5z M244.6,101.7l-44.3,38V80.9L244.6,101.7z M178.9,70.8
		L133.2,110V49.3L178.9,70.8z M185.4,84.9v52.9l-38.8-19.7L185.4,84.9z M252.4,114.7v57.1l-41.9-21.2L252.4,114.7z M267.3,112.4
		l43,20.3l-43,36.9V112.4z M343.7,78.3h55.7l22.3,149H321.4L343.7,78.3z M395,48.5l2.2,14.9H346l2.2-14.9h1H395z M334.3,26.1
		c0-4.1,3.3-7.4,7.4-7.4h59.6c4.1,0,7.4,3.3,7.4,7.4s-3.3,7.4-7.4,7.4h-52.1h-7.4C337.7,33.6,334.3,30.2,334.3,26.1z M333.1,48.5
		l-11,73.3L166.5,48.5H333.1z M118.4,54.5v49.3L74.8,81.7L118.4,54.5z M215.2,264.5v14.9c0,4.1-3.3,7.4-7.4,7.4H29
		c-4.1,0-7.4-3.3-7.4-7.4v-14.9c0-4.1,3.3-7.4,7.4-7.4h178.7C211.8,257,215.2,260.4,215.2,264.5z M180.8,242.1H55.9l61.1-122.3
		l3.5,1.8L180.8,242.1z M274.5,183l44.1-37.8l-8.4,55.9L274.5,183z M319.1,242.1H424l13.4,89.4h-36V257h-59.6v74.5h-36L319.1,242.1z
		 M386.5,331.5h-29.8v-59.6h29.8V331.5z M349.2,420.9h-29.8v-44.7h29.8V420.9z M432.8,450.7H310.4l-3.7-14.9h129.9L432.8,450.7z
		 M423.7,420.9h-29.8v-44.7h29.8V420.9z M453.5,420.9h-14.9v-59.6H379v59.6h-14.9v-59.6h-59.6v59.6h-14.9v-74.5h163.8V420.9z"/>
	<linearGradient id="SVGID_2_" gradientUnits="userSpaceOnUse" x1="185.5104" y1="291.3655" x2="353.1111" y2="-13.242">
		<stop  offset="0" style="stop-color:#4697A8"/>
		<stop  offset="1" style="stop-color:#F04E37"/>
	</linearGradient>
	<path class="st1" d="M207.7,361.3H29c-12.3,0-22.3,10-22.3,22.3v14.9c0,5.7,2.2,10.9,5.8,14.9c-3.6,4-5.8,9.2-5.8,14.9v14.9
		c0,12.3,10,22.3,22.3,22.3h178.7c12.3,0,22.3-10,22.3-22.3v-14.9c0-5.7-2.2-10.9-5.8-14.9c3.6-4,5.8-9.2,5.8-14.9v-14.9
		C230.1,371.3,220,361.3,207.7,361.3z M21.5,383.6c0-4.1,3.3-7.4,7.4-7.4h178.7c4.1,0,7.4,3.3,7.4,7.4v14.9c0,4.1-3.3,7.4-7.4,7.4
		H29c-4.1,0-7.4-3.3-7.4-7.4V383.6z M215.2,443.2c0,4.1-3.3,7.4-7.4,7.4H29c-4.1,0-7.4-3.3-7.4-7.4v-14.9c0-4.1,3.3-7.4,7.4-7.4
		h178.7c4.1,0,7.4,3.3,7.4,7.4V443.2z"/>
</g>
</svg>
